<svg width="1000" height="1000" viewBox="0 0 1000 1000" fill="none" xmlns="http://www.w3.org/2000/svg">
<path opacity="0.32" d="M681.949 757H314.051C307.478 757 302 751.545 302 745C302 738.455 307.478 733 314.051 733H681.949C688.522 733 694 738.455 694 745C694 751.545 688.522 757 681.949 757Z" fill="#1C1C1C"/>
<path opacity="0.32" d="M937.978 849H169.022C162.464 849 157 843.545 157 837C157 830.455 162.464 825 169.022 825H937.978C944.536 825 950 830.455 950 837C950 843.764 944.536 849 937.978 849Z" fill="#1C1C1C"/>
<path d="M882 521H113V108.385C113 89.3307 128.293 74 147.299 74H846.608C866.052 74 882 89.9878 882 109.48V521Z" fill="#383939"/>
<path d="M126 487.312V106.688C126 95.75 134.753 87 145.694 87H850.306C861.247 87 870 95.75 870 106.688V487.312C870 498.25 861.247 507 850.306 507H145.694C134.972 507 126 498.031 126 487.312Z" fill="#3A3A3A"/>
<path d="M882 521H113V108.385C113 89.3307 128.293 74 147.299 74H846.608C866.052 74 882 89.9878 882 109.48V521Z" stroke="#383939" stroke-width="6" stroke-miterlimit="10" stroke-linecap="round" stroke-linejoin="round"/>
<path d="M839 477V118H157V477H839Z" fill="#4F4F4F"/>
<path d="M846.39 625H147.518C128.511 625 113 609.617 113 590.767V521H882V589.683C882 608.967 866.052 625 846.39 625Z" fill="#D4E8DC"/>
<path d="M147.062 609C137.656 609 130 601.275 130 591.785V528H865V590.681C865 600.834 856.906 609 846.844 609H147.062Z" fill="#EBF2EE"/>
<path d="M846.39 625H147.518C128.511 625 113 609.617 113 590.767V521H882V589.683C882 608.967 866.052 625 846.39 625Z" stroke="#383939" stroke-width="6" stroke-miterlimit="10" stroke-linecap="round" stroke-linejoin="round"/>
<path d="M614 704H382L416.362 625H579.638L614 704Z" fill="#CAD8D0"/>
<path d="M595 661L579.673 625H416.327L401 661H595Z" fill="#A1ADA6"/>
<path d="M614 704H382L416.362 625H579.638L614 704Z" stroke="#383939" stroke-width="6" stroke-miterlimit="10" stroke-linecap="round" stroke-linejoin="round"/>
<path d="M657 739H338L341.277 727.406C345.21 713.625 358.101 704 372.959 704H622.041C636.899 704 650.008 713.625 653.723 727.406L657 739Z" fill="#DAEDE2"/>
<path d="M657 739H338L341.277 727.406C345.21 713.625 358.101 704 372.959 704H622.041C636.899 704 650.008 713.625 653.723 727.406L657 739Z" stroke="#383939" stroke-width="6" stroke-miterlimit="10" stroke-linecap="round" stroke-linejoin="round"/>
<path d="M213.679 829H769.326C777.429 829 784 822.507 784 814.5C784 806.493 777.429 800 769.326 800H213.679C205.576 800 199.005 806.493 199.005 814.5C198.786 822.507 205.357 829 213.679 829Z" fill="#DAEDE2"/>
<path d="M213.679 829H769.326C777.429 829 784 822.507 784 814.5C784 806.493 777.429 800 769.326 800H213.679C205.576 800 199.005 806.493 199.005 814.5C198.786 822.507 205.357 829 213.679 829Z" stroke="#383939" stroke-width="6" stroke-miterlimit="10" stroke-linecap="round" stroke-linejoin="round"/>
<path d="M383 800H650V790.8C650 783.21 644.091 777 636.869 777H396.131C388.909 777 383 783.21 383 790.8V800Z" fill="#383939"/>
<path d="M331 800H377V790.8C377 783.21 371.142 777 363.981 777H344.019C336.858 777 331 783.21 331 790.8V800Z" fill="#383939"/>
<path d="M277 800H322V790.8C322 783.21 316.269 777 309.264 777H289.736C282.731 777 277 783.21 277 790.8V800Z" fill="#383939"/>
<path d="M712 800H759V790.8C759 783.21 753.014 777 745.698 777H725.302C717.986 777 712 783.21 712 790.8V800Z" fill="#383939"/>
<path d="M658 800H704V790.8C704 783.21 698.142 777 690.981 777H671.019C663.858 777 658 783.21 658 790.8V800Z" fill="#383939"/>
<path d="M223 800H268V790.8C268 783.21 262.269 777 255.264 777H235.736C228.731 777 223 783.21 223 790.8V800Z" fill="#383939"/>
<path d="M914 829C913.781 812 895.636 795 863.5 795C831.582 795 813.219 812 813 829H914Z" fill="#DAEDE2"/>
<path d="M914 829C913.781 812 895.636 795 863.5 795C831.582 795 813.219 812 813 829H914Z" stroke="#383939" stroke-width="6" stroke-miterlimit="10" stroke-linecap="round" stroke-linejoin="round"/>
<path d="M529.544 567.641C519.272 567.641 510.786 560.049 509.447 550C509.223 550 509.223 550 509 550C496.272 550 486 560.272 486 573C486 585.728 496.272 596 509 596C521.728 596 532 585.728 532 573C532 570.99 531.777 569.204 531.33 567.417C530.66 567.641 530.214 567.641 529.544 567.641Z" fill="#383939"/>
<path opacity="0.16" d="M235 477H318.112L500 118H416.888L235 477Z" fill="#C2D3C9"/>
<path opacity="0.16" d="M384.551 477L569 118H537.449L353 477H384.551Z" fill="#C2D3C9"/>
</svg>
